<svg xmlns="http://www.w3.org/2000/svg" version="1.1" width="821px" height="533px" style="shape-rendering:geometricPrecision; text-rendering:geometricPrecision; image-rendering:optimizeQuality; fill-rule:evenodd; clip-rule:evenodd" xmlns:xlink="http://www.w3.org/1999/xlink">
<g></g>
<g><path style="opacity: 1; visibility: hidden;" fill="#ecdbfe" d="M 503.5,-0.5 C 606.833,-0.5 710.167,-0.5 813.5,-0.5C 814.836,1.01027 816.003,2.67694 817,4.5C 817.5,104.166 817.667,203.833 817.5,303.5C 792.824,303.833 768.158,303.5 743.5,302.5C 740.893,301.682 738.226,301.182 735.5,301C 756.833,300.667 778.167,300.333 799.5,300C 775.833,299.667 752.167,299.333 728.5,299C 730.833,298.667 733.167,298.333 735.5,298C 730.833,297.667 726.167,297.333 721.5,297C 744.833,296.667 768.167,296.333 791.5,296C 766.167,295.667 740.833,295.333 715.5,295C 716.833,294.667 718.167,294.333 719.5,294C 716.167,293.667 712.833,293.333 709.5,293C 723.5,292.667 737.5,292.333 751.5,292C 735.833,291.667 720.167,291.333 704.5,291C 706.833,290.667 709.167,290.333 711.5,290C 707.5,289.667 703.5,289.333 699.5,289C 714.167,288.667 728.833,288.333 743.5,288C 727.167,287.667 710.833,287.333 694.5,287C 696.167,286.667 697.833,286.333 699.5,286C 696.167,285.667 692.833,285.333 689.5,285C 699.5,284.667 709.5,284.333 719.5,284C 708.167,283.667 696.833,283.333 685.5,283C 688.833,282.667 692.167,282.333 695.5,282C 690.833,281.667 686.167,281.333 681.5,281C 694.167,280.667 706.833,280.333 719.5,280C 705.5,279.667 691.5,279.333 677.5,279C 678.167,278.667 678.833,278.333 679.5,278C 677.307,278.57 675.307,278.236 673.5,277C 683.5,276.667 693.5,276.333 703.5,276C 692.167,275.667 680.833,275.333 669.5,275C 672.833,274.667 676.167,274.333 679.5,274C 674.833,273.667 670.167,273.333 665.5,273C 675.5,272.667 685.5,272.333 695.5,272C 684.5,271.667 673.5,271.333 662.5,271C 662.833,270.667 663.167,270.333 663.5,270C 661.833,269.667 660.167,269.333 658.5,269C 666.833,268.667 675.167,268.333 683.5,268C 674.167,267.667 664.833,267.333 655.5,267C 656.833,266.667 658.167,266.333 659.5,266C 656.833,265.667 654.167,265.333 651.5,265C 660.833,264.667 670.167,264.333 679.5,264C 669.167,263.667 658.833,263.333 648.5,263C 647.672,262.085 646.672,261.419 645.5,261C 652.833,260.667 660.167,260.333 667.5,260C 659.167,259.667 650.833,259.333 642.5,259C 649.134,258.177 649.134,257.677 642.5,257.5C 647.636,251.542 653.969,250.042 661.5,253C 664.341,254.586 667.007,256.42 669.5,258.5C 671.475,257.725 672.309,256.391 672,254.5C 665.058,248.245 656.891,245.912 647.5,247.5C 640.159,247.666 632.826,247.5 625.5,247C 627.5,246.667 629.5,246.333 631.5,246C 628.833,245.667 626.167,245.333 623.5,245C 631.5,244.667 639.5,244.333 647.5,244C 638.5,243.667 629.5,243.333 620.5,243C 624.167,242.667 627.833,242.333 631.5,242C 627.167,241.667 622.833,241.333 618.5,241C 625.5,240.667 632.5,240.333 639.5,240C 631.5,239.667 623.5,239.333 615.5,239C 616.833,238.667 618.167,238.333 619.5,238C 617.5,237.667 615.5,237.333 613.5,237C 620.833,236.667 628.167,236.333 635.5,236C 627.167,235.667 618.833,235.333 610.5,235C 612.167,234.667 613.833,234.333 615.5,234C 613.167,233.667 610.833,233.333 608.5,233C 616.167,232.667 623.833,232.333 631.5,232C 623.167,231.667 614.833,231.333 606.5,231C 606.833,230.667 607.167,230.333 607.5,230C 606.5,229.667 605.5,229.333 604.5,229C 610.833,228.667 617.167,228.333 623.5,228C 616.5,227.667 609.5,227.333 602.5,227C 604.167,226.667 605.833,226.333 607.5,226C 604.833,225.667 602.167,225.333 599.5,225C 607.5,224.667 615.5,224.333 623.5,224C 614.833,223.667 606.167,223.333 597.5,223C 598.167,222.667 598.833,222.333 599.5,222C 598.167,221.667 596.833,221.333 595.5,221C 600.833,220.667 606.167,220.333 611.5,220C 605.5,219.667 599.5,219.333 593.5,219C 595.5,218.667 597.5,218.333 599.5,218C 596.833,217.667 594.167,217.333 591.5,217C 598.167,216.667 604.833,216.333 611.5,216C 604.167,215.667 596.833,215.333 589.5,215C 590.167,214.667 590.833,214.333 591.5,214C 590.167,213.667 588.833,213.333 587.5,213C 594.167,212.667 600.833,212.333 607.5,212C 600.5,211.667 593.5,211.333 586.5,211C 588.167,210.667 589.833,210.333 591.5,210C 589.167,209.667 586.833,209.333 584.5,209C 592.167,208.667 599.833,208.333 607.5,208C 599.167,207.667 590.833,207.333 582.5,207C 582.833,206.667 583.167,206.333 583.5,206C 582.5,205.667 581.5,205.333 580.5,205C 586.833,204.667 593.167,204.333 599.5,204C 592.5,203.667 585.5,203.333 578.5,203C 584.837,202.163 584.503,201.497 577.5,201C 584.833,200.667 592.167,200.333 599.5,200C 591.5,199.667 583.5,199.333 575.5,199C 576.833,198.667 578.167,198.333 579.5,198C 577.5,197.667 575.5,197.333 573.5,197C 578.167,196.667 582.833,196.333 587.5,196C 582.5,195.667 577.5,195.333 572.5,195C 573.5,194.667 574.5,194.333 575.5,194C 573.833,193.667 572.167,193.333 570.5,193C 577.5,192.667 584.5,192.333 591.5,192C 583.833,191.667 576.167,191.333 568.5,191C 572.185,190.086 571.852,189.419 567.5,189C 572.833,188.667 578.167,188.333 583.5,188C 577.5,187.667 571.5,187.333 565.5,187C 568.833,186.667 572.167,186.333 575.5,186C 571.833,185.667 568.167,185.333 564.5,185C 570.833,184.667 577.167,184.333 583.5,184C 576.5,183.667 569.5,183.333 562.5,183C 568.837,182.163 568.503,181.497 561.5,181C 566.167,180.667 570.833,180.333 575.5,180C 570.5,179.667 565.5,179.333 560.5,179C 561.5,178.667 562.5,178.333 563.5,178C 561.833,177.667 560.167,177.333 558.5,177C 564.167,176.667 569.833,176.333 575.5,176C 569.5,175.667 563.5,175.333 557.5,175C 558.167,174.667 558.833,174.333 559.5,174C 558.167,173.667 556.833,173.333 555.5,173C 560.833,172.667 566.167,172.333 571.5,172C 565.833,171.667 560.167,171.333 554.5,171C 560.837,170.163 560.503,169.497 553.5,169C 560.833,168.667 568.167,168.333 575.5,168C 567.479,167.832 559.479,167.332 551.5,166.5C 551.291,165.914 550.957,165.414 550.5,165C 556.167,164.667 561.833,164.333 567.5,164C 561.5,163.667 555.5,163.333 549.5,163C 557.167,162.187 556.834,161.521 548.5,161C 554.833,160.667 561.167,160.333 567.5,160C 560.5,159.667 553.5,159.333 546.5,159C 547.634,157.984 547.301,157.317 545.5,157C 550.167,156.667 554.833,156.333 559.5,156C 554.5,155.667 549.5,155.333 544.5,155C 546.833,154.667 549.167,154.333 551.5,154C 548.833,153.667 546.167,153.333 543.5,153C 548.833,152.667 554.167,152.333 559.5,152C 553.833,151.667 548.167,151.333 542.5,151C 548.837,150.163 548.503,149.497 541.5,149C 546.167,148.667 550.833,148.333 555.5,148C 550.5,147.667 545.5,147.333 540.5,147C 541.5,146.667 542.5,146.333 543.5,146C 541.833,145.667 540.167,145.333 538.5,145C 545.5,144.667 552.5,144.333 559.5,144C 552.167,143.667 544.833,143.333 537.5,143C 539.878,142.026 539.544,141.359 536.5,141C 541.5,140.667 546.5,140.333 551.5,140C 546.167,139.667 540.833,139.333 535.5,139C 538.167,138.667 540.833,138.333 543.5,138C 540.5,137.667 537.5,137.333 534.5,137C 540.167,136.667 545.833,136.333 551.5,136C 545.5,135.667 539.5,135.333 533.5,135C 535.878,134.026 535.544,133.359 532.5,133C 537.5,132.667 542.5,132.333 547.5,132C 542.167,131.667 536.833,131.333 531.5,131C 536.508,130.131 536.175,129.464 530.5,129C 553.167,128.333 553.167,127.667 530.5,127C 536.837,126.163 536.503,125.497 529.5,125C 534.167,124.667 538.833,124.333 543.5,124C 538.5,123.667 533.5,123.333 528.5,123C 532.185,122.086 531.852,121.419 527.5,121C 532.833,120.667 538.167,120.333 543.5,120C 537.833,119.667 532.167,119.333 526.5,119C 527.634,117.984 527.301,117.317 525.5,117C 531.5,116.667 537.5,116.333 543.5,116C 537.167,115.667 530.833,115.333 524.5,115C 528.5,114.333 528.5,113.667 524.5,113C 530.833,112.667 537.167,112.333 543.5,112C 536.833,111.667 530.167,111.333 523.5,111C 528.508,110.131 528.175,109.464 522.5,109C 526.833,108.667 531.167,108.333 535.5,108C 530.833,107.667 526.167,107.333 521.5,107C 529.5,106.333 529.5,105.667 521.5,105C 526.167,104.667 530.833,104.333 535.5,104C 530.5,103.667 525.5,103.333 520.5,103C 524.185,102.086 523.852,101.419 519.5,101C 524.833,100.667 530.167,100.333 535.5,100C 529.833,99.6667 524.167,99.3333 518.5,99C 525.167,98.3333 525.167,97.6667 518.5,97C 524.167,96.6667 529.833,96.3333 535.5,96C 529.5,95.6667 523.5,95.3333 517.5,95C 519.878,94.0255 519.544,93.3589 516.5,93C 536.5,92.3333 536.5,91.6667 516.5,91C 518.833,90.6667 521.167,90.3333 523.5,90C 520.833,89.6667 518.167,89.3333 515.5,89C 520.833,88.3333 520.833,87.6667 515.5,87C 519.5,86.6667 523.5,86.3333 527.5,86C 523.167,85.6667 518.833,85.3333 514.5,85C 520.837,84.1632 520.503,83.4966 513.5,83C 537.5,82.3333 537.5,81.6667 513.5,81C 515.878,80.0255 515.544,79.3589 512.5,79C 532.5,78.3333 532.5,77.6667 512.5,77C 514.833,76.6667 517.167,76.3333 519.5,76C 516.833,75.6667 514.167,75.3333 511.5,75C 532.802,74.4971 532.802,73.6637 511.5,72.5C 511.291,71.914 510.957,71.414 510.5,71C 533.167,70.3333 533.167,69.6667 510.5,69C 516.837,68.1632 516.503,67.4966 509.5,67C 533.5,66.3333 533.5,65.6667 509.5,65C 511.878,64.0255 511.544,63.3589 508.5,63C 528.5,62.3333 528.5,61.6667 508.5,61C 512.185,60.0855 511.852,59.4189 507.5,59C 534.167,58.3333 534.167,57.6667 507.5,57C 512.833,56.3333 512.833,55.6667 507.5,55C 511.5,54.6667 515.5,54.3333 519.5,54C 515.167,53.6667 510.833,53.3333 506.5,53C 518.5,52.3333 518.5,51.6667 506.5,51C 529.167,50.3333 529.167,49.6667 506.5,49C 512.837,48.1632 512.503,47.4966 505.5,47C 524.167,46.3333 524.167,45.6667 505.5,45C 513.5,44.3333 513.5,43.6667 505.5,43C 510.167,42.6667 514.833,42.3333 519.5,42C 514.5,41.6667 509.5,41.3333 504.5,41C 508.5,40.3333 508.5,39.6667 504.5,39C 519.167,38.3333 519.167,37.6667 504.5,37C 508.5,36.3333 508.5,35.6667 504.5,35C 510.833,34.6667 517.167,34.3333 523.5,34C 516.842,33.5004 510.175,33.3337 503.5,33.5C 503.5,32.5 503.5,31.5 503.5,30.5C 519.486,30.3315 519.486,29.8315 503.5,29C 508.833,28.3333 508.833,27.6667 503.5,27C 508.833,26.6667 514.167,26.3333 519.5,26C 513.833,25.6667 508.167,25.3333 502.5,25C 503.833,24.3333 503.833,23.6667 502.5,23C 525.167,22.3333 525.167,21.6667 502.5,21C 514.5,20.3333 514.5,19.6667 502.5,19C 525.167,18.3333 525.167,17.6667 502.5,17C 503.833,16.3333 503.833,15.6667 502.5,15C 519.833,14.3333 519.833,13.6667 502.5,13C 508.837,12.1632 508.503,11.4966 501.5,11C 525.5,10.3333 525.5,9.66667 501.5,9C 504.167,8.33333 504.167,7.66667 501.5,7C 520.167,6.33333 520.167,5.66667 501.5,5C 509.5,4.33333 509.5,3.66667 501.5,3C 520.167,2.33333 520.167,1.66667 501.5,1C 502.416,0.721579 503.082,0.221579 503.5,-0.5 Z" data-index="1"></path></g>
<g></g>
<g><path style="opacity:1" fill="#f562a3" d="M 153.5,215.5 C 154.693,215.97 155.36,216.97 155.5,218.5C 155.299,220.973 154.632,223.306 153.5,225.5C 152.249,222.126 152.249,218.793 153.5,215.5 Z" data-index="3"></path></g>
<g><path style="opacity:1" fill="#ead2fb" d="M 213.5,220.5 C 235.581,233.923 240.747,252.256 229,275.5C 226.295,278.036 223.795,280.703 221.5,283.5C 207.455,292.19 193.122,292.69 178.5,285C 176.271,282.6 173.937,280.433 171.5,278.5C 164.938,271.15 161.938,262.483 162.5,252.5C 164.484,252.617 166.15,251.95 167.5,250.5C 168.042,256.308 169.208,261.975 171,267.5C 172.371,270.266 174.204,272.599 176.5,274.5C 182.062,281.282 189.396,284.948 198.5,285.5C 220.236,282.605 230.403,270.271 229,248.5C 226.974,238.655 221.474,231.655 212.5,227.5C 196.496,220.673 183.163,224.173 172.5,238C 170.55,239.496 168.55,239.663 166.5,238.5C 173.312,225.756 183.978,219.09 198.5,218.5C 203.617,218.464 208.617,219.131 213.5,220.5 Z" data-index="4"></path></g>
<g><path style="opacity:1" fill="#f6599c" d="M 140.5,219.5 C 143.744,221.071 146.411,223.405 148.5,226.5C 147.998,227.521 147.332,227.688 146.5,227C 143.882,224.894 141.882,222.394 140.5,219.5 Z" data-index="5"></path></g>
<g><path style="opacity:1" fill="#ead4fd" d="M 210.5,228.5 C 228.11,240.391 231.276,255.391 220,273.5C 218.045,274.453 216.378,275.787 215,277.5C 213.989,263.972 208.155,253.139 197.5,245C 193.526,242.398 189.193,240.898 184.5,240.5C 181.972,239.834 179.306,239.168 176.5,238.5C 185.25,226.921 196.583,223.588 210.5,228.5 Z" data-index="6"></path></g>
<g><path style="opacity:1" fill="#f55d9f" d="M 213.5,218.5 C 213.5,219.167 213.5,219.833 213.5,220.5C 208.617,219.131 203.617,218.464 198.5,218.5C 183.978,219.09 173.312,225.756 166.5,238.5C 168.55,239.663 170.55,239.496 172.5,238C 183.163,224.173 196.496,220.673 212.5,227.5C 212.158,228.338 211.492,228.672 210.5,228.5C 196.583,223.588 185.25,226.921 176.5,238.5C 179.306,239.168 181.972,239.834 184.5,240.5C 184.158,241.338 183.492,241.672 182.5,241.5C 175.367,241.108 168.367,241.775 161.5,243.5C 161.5,242.833 161.167,242.5 160.5,242.5C 171.386,219.558 189.052,211.558 213.5,218.5 Z" data-index="7"></path></g>
<g><path style="opacity:1" fill="#f561a3" d="M 137.5,231.5 C 140.572,231.183 143.572,231.516 146.5,232.5C 143.282,234.372 139.948,234.705 136.5,233.5C 136.863,232.817 137.196,232.15 137.5,231.5 Z" data-index="8"></path></g>
<g><path style="opacity:1" fill="#f6599d" d="M 488.5,271.5 C 486.295,282.368 479.629,287.702 468.5,287.5C 453.179,285.657 446.679,276.991 449,261.5C 453.623,249.771 462.123,245.271 474.5,248C 478.157,248.837 481.157,250.67 483.5,253.5C 484.499,247.592 484.833,240.926 484.5,233.5C 485.833,233.5 487.167,233.5 488.5,233.5C 488.5,246.167 488.5,258.833 488.5,271.5 Z" data-index="9"></path></g>
<g><path style="opacity:1" fill="#f762a4" d="M 498.5,233.5 C 505.622,233.246 506.955,235.746 502.5,241C 497.632,240.711 496.299,238.211 498.5,233.5 Z" data-index="10"></path></g>
<g><path style="opacity:1" fill="#ed80bc" d="M 307.5,234.5 C 307.5,252.167 307.5,269.833 307.5,287.5C 308.833,287.5 310.167,287.5 311.5,287.5C 311.175,280.313 311.509,273.313 312.5,266.5C 312.5,273.833 312.5,281.167 312.5,288.5C 310.5,288.5 308.5,288.5 306.5,288.5C 306.17,270.326 306.503,252.326 307.5,234.5 Z" data-index="11"></path></g>
<g><path style="opacity:1" fill="#f03884" d="M 307.5,234.5 C 308.833,234.5 310.167,234.5 311.5,234.5C 311.17,241.532 311.503,248.532 312.5,255.5C 313.107,255.376 313.44,255.043 313.5,254.5C 318.525,248.8 324.858,246.967 332.5,249C 337.272,251.38 339.939,255.213 340.5,260.5C 340.5,269.5 340.5,278.5 340.5,287.5C 339.167,287.5 337.833,287.5 336.5,287.5C 336.826,278.983 336.493,270.65 335.5,262.5C 335.655,257.977 333.655,254.811 329.5,253C 319.572,252.092 313.905,256.592 312.5,266.5C 311.509,273.313 311.175,280.313 311.5,287.5C 310.167,287.5 308.833,287.5 307.5,287.5C 307.5,269.833 307.5,252.167 307.5,234.5 Z" data-index="12"></path></g>
<g><path style="opacity:1" fill="#ee74b3" d="M 307.5,234.5 C 308.919,233.549 310.585,233.216 312.5,233.5C 312.175,240.687 312.509,247.687 313.5,254.5C 313.44,255.043 313.107,255.376 312.5,255.5C 311.503,248.532 311.17,241.532 311.5,234.5C 310.167,234.5 308.833,234.5 307.5,234.5 Z" data-index="13"></path></g>
<g><path style="opacity:1" fill="#f291c8" d="M 488.5,271.5 C 488.5,258.833 488.5,246.167 488.5,233.5C 487.167,233.5 485.833,233.5 484.5,233.5C 484.833,240.926 484.499,247.592 483.5,253.5C 483.5,246.5 483.5,239.5 483.5,232.5C 485.5,232.5 487.5,232.5 489.5,232.5C 489.829,245.677 489.495,258.677 488.5,271.5 Z" data-index="14"></path></g>
<g></g>
<g><path style="opacity:1" fill="#ead1fb" d="M 182.5,241.5 C 197.394,245.226 206.894,254.56 211,269.5C 211.667,272.833 211.667,276.167 211,279.5C 209.667,280.167 208.333,280.833 207,281.5C 206.554,262.872 197.387,251.538 179.5,247.5C 161.006,246.822 149.506,255.489 145,273.5C 144.104,285.477 148.27,295.311 157.5,303C 160.971,305.072 164.638,306.572 168.5,307.5C 182.197,310.314 193.197,305.98 201.5,294.5C 208.112,291.001 209.612,292.334 206,298.5C 201.52,303.827 196.353,308.16 190.5,311.5C 165.524,318.595 148.69,309.929 140,285.5C 137.385,266.395 144.552,252.395 161.5,243.5C 168.367,241.775 175.367,241.108 182.5,241.5 Z" data-index="16"></path></g>
<g><path style="opacity:1" fill="#fc81bb" d="M 213.5,218.5 C 234.883,229.287 242.05,246.287 235,269.5C 232.6,275.65 228.767,280.65 223.5,284.5C 223.158,283.662 222.492,283.328 221.5,283.5C 223.795,280.703 226.295,278.036 229,275.5C 240.747,252.256 235.581,233.923 213.5,220.5C 213.5,219.833 213.5,219.167 213.5,218.5 Z" data-index="17"></path></g>
<g><path style="opacity:1" fill="#f24990" d="M 363.5,247.5 C 376.269,244.965 385.102,249.632 390,261.5C 390.5,270.494 390.666,279.494 390.5,288.5C 388.833,288.5 387.167,288.5 385.5,288.5C 386.811,280.201 385.144,279.034 380.5,285C 366.61,291.569 356.777,287.736 351,273.5C 348.519,261.466 352.686,252.799 363.5,247.5 Z" data-index="18"></path></g>
<g><path style="opacity:1" fill="#f96dac" d="M 546.5,247.5 C 548.467,247.261 550.301,247.594 552,248.5C 556.333,258.167 560.667,267.833 565,277.5C 569.591,267.982 573.924,258.315 578,248.5C 579.814,247.24 581.647,247.24 583.5,248.5C 575.833,265.833 568.167,283.167 560.5,300.5C 558.833,301.833 557.167,301.833 555.5,300.5C 557.931,295.041 560.264,289.541 562.5,284C 557.064,271.851 551.73,259.684 546.5,247.5 Z" data-index="19"></path></g>
<g><path style="opacity:1" fill="#fb74b1" d="M 623.5,260.5 C 623.5,269.5 623.5,278.5 623.5,287.5C 622.167,287.5 620.833,287.5 619.5,287.5C 619.666,278.494 619.5,269.494 619,260.5C 617.289,255.142 613.622,252.809 608,253.5C 598.865,253.134 594.698,257.468 595.5,266.5C 594.509,273.313 594.175,280.313 594.5,287.5C 593.167,287.5 591.833,287.5 590.5,287.5C 589.13,277.956 589.297,268.289 591,258.5C 596.053,248.942 603.887,245.775 614.5,249C 619.914,250.917 622.914,254.75 623.5,260.5 Z" data-index="20"></path></g>
<g><path style="opacity:1" fill="#f45297" d="M 434.5,288.5 C 434.665,285.482 434.498,282.482 434,279.5C 433.283,280.044 432.783,280.711 432.5,281.5C 431.284,283.451 429.618,284.951 427.5,286C 410.415,290.907 400.748,284.573 398.5,267C 400.713,251.89 409.379,245.556 424.5,248C 432.408,250.242 437.241,255.409 439,263.5C 439.5,271.827 439.666,280.16 439.5,288.5C 437.833,288.5 436.167,288.5 434.5,288.5 Z" data-index="21"></path></g>
<g></g>
<g><path style="opacity:1" fill="#ead3fd" d="M 178.5,249.5 C 195.733,253.591 204.066,264.591 203.5,282.5C 192.301,283.911 183.301,280.245 176.5,271.5C 171.615,265.026 169.948,257.86 171.5,250C 173.81,249.503 176.143,249.337 178.5,249.5 Z" data-index="23"></path></g>
<g><path style="opacity:1" fill="#ee3b85" d="M 278.5,234.5 C 286.369,233.118 292.369,235.784 296.5,242.5C 295.788,244.046 294.622,245.046 293,245.5C 290.888,244.392 289.054,242.892 287.5,241C 281.718,238.458 277.718,240.125 275.5,246C 278.059,252.229 282.392,256.895 288.5,260C 291.704,262.869 294.537,266.035 297,269.5C 299.268,278.465 296.101,284.631 287.5,288C 278.157,289.496 271.491,285.996 267.5,277.5C 268.347,276.155 269.513,275.155 271,274.5C 273.58,279.416 277.58,282.416 283,283.5C 291.399,281.419 293.733,276.419 290,268.5C 286.778,265.612 283.278,263.112 279.5,261C 272.394,256.295 269.561,249.795 271,241.5C 272.742,238.254 275.242,235.921 278.5,234.5 Z" data-index="24"></path></g>
<g><path style="opacity:1" fill="#ead6fe" d="M 364.5,252.5 C 379.12,250.7 385.62,257.033 384,271.5C 380.584,280.626 374.084,284.126 364.5,282C 355.914,276.988 353.414,269.822 357,260.5C 359.028,257.308 361.528,254.641 364.5,252.5 Z" data-index="25"></path></g>
<g><path style="opacity:1" fill="#ebd6fd" d="M 414.5,252.5 C 426.155,250.638 432.488,255.471 433.5,267C 431.267,279.925 423.934,284.591 411.5,281C 400.093,270.036 401.093,260.536 414.5,252.5 Z" data-index="26"></path></g>
<g><path style="opacity:1" fill="#ebd6fd" d="M 464.5,251.5 C 481.47,251.976 487.303,260.31 482,276.5C 474.879,284.662 467.046,285.495 458.5,279C 450.324,267.54 452.324,258.373 464.5,251.5 Z" data-index="27"></path></g>
<g><path style="opacity:1" fill="#fd7cb7" d="M 647.5,247.5 C 656.891,245.912 665.058,248.245 672,254.5C 672.309,256.391 671.475,257.725 669.5,258.5C 667.007,256.42 664.341,254.586 661.5,253C 653.969,250.042 647.636,251.542 642.5,257.5C 640.39,258.453 639.223,260.119 639,262.5C 637.064,270.124 639.23,276.291 645.5,281C 654.442,285.355 662.276,283.855 669,276.5C 671.268,277.076 672.268,278.41 672,280.5C 667.502,286.057 661.669,288.391 654.5,287.5C 648.015,288.173 642.515,286.173 638,281.5C 629.434,266.73 632.601,255.397 647.5,247.5 Z" data-index="28"></path></g>
<g><path style="opacity:1" fill="#e9d4fd" d="M 170.5,280.5 C 177.704,288.933 187.037,293.433 198.5,294C 191.409,303.039 182.076,306.872 170.5,305.5C 152.016,299.876 144.849,287.543 149,268.5C 151.264,263.079 154.764,258.746 159.5,255.5C 160.288,265.23 163.954,273.563 170.5,280.5 Z" data-index="29"></path></g>
<g><path style="opacity:1" fill="#f871af" d="M 212.5,227.5 C 221.474,231.655 226.974,238.655 229,248.5C 230.403,270.271 220.236,282.605 198.5,285.5C 189.396,284.948 182.062,281.282 176.5,274.5C 176.5,273.5 176.5,272.5 176.5,271.5C 183.301,280.245 192.301,283.911 203.5,282.5C 204.066,264.591 195.733,253.591 178.5,249.5C 180.698,249.591 181.031,248.925 179.5,247.5C 197.387,251.538 206.554,262.872 207,281.5C 208.333,280.833 209.667,280.167 211,279.5C 211.667,276.167 211.667,272.833 211,269.5C 206.894,254.56 197.394,245.226 182.5,241.5C 183.492,241.672 184.158,241.338 184.5,240.5C 189.193,240.898 193.526,242.398 197.5,245C 208.155,253.139 213.989,263.972 215,277.5C 216.378,275.787 218.045,274.453 220,273.5C 231.276,255.391 228.11,240.391 210.5,228.5C 211.492,228.672 212.158,228.338 212.5,227.5 Z" data-index="30"></path></g>
<g><path style="opacity:1" fill="#f14b91" d="M 179.5,247.5 C 181.031,248.925 180.698,249.591 178.5,249.5C 176.143,249.337 173.81,249.503 171.5,250C 169.948,257.86 171.615,265.026 176.5,271.5C 176.5,272.5 176.5,273.5 176.5,274.5C 174.204,272.599 172.371,270.266 171,267.5C 169.208,261.975 168.042,256.308 167.5,250.5C 166.15,251.95 164.484,252.617 162.5,252.5C 161.938,262.483 164.938,271.15 171.5,278.5C 171.672,279.492 171.338,280.158 170.5,280.5C 163.954,273.563 160.288,265.23 159.5,255.5C 154.764,258.746 151.264,263.079 149,268.5C 144.849,287.543 152.016,299.876 170.5,305.5C 170.5,306.833 169.833,307.5 168.5,307.5C 164.638,306.572 160.971,305.072 157.5,303C 148.27,295.311 144.104,285.477 145,273.5C 149.506,255.489 161.006,246.822 179.5,247.5 Z" data-index="31"></path></g>
<g><path style="opacity:1" fill="#f867a7" d="M 521.5,234.5 C 529.844,233.008 536.178,235.841 540.5,243C 539.335,244.084 538.002,244.917 536.5,245.5C 532.992,241.405 528.659,239.571 523.5,240C 519.226,243.033 518.393,246.867 521,251.5C 527.292,256.123 533.292,261.123 539,266.5C 543.961,279.572 539.461,286.905 525.5,288.5C 519.202,287.183 514.536,283.683 511.5,278C 512.076,276.286 513.243,275.119 515,274.5C 517.556,279.232 521.389,282.232 526.5,283.5C 534.52,281.793 537.02,277.127 534,269.5C 530.133,265.154 525.633,261.654 520.5,259C 514.945,254.426 513.111,248.592 515,241.5C 516.694,238.642 518.861,236.309 521.5,234.5 Z" data-index="32"></path></g>
<g><path style="opacity:1" fill="#ee84bf" d="M 340.5,260.5 C 341.494,269.652 341.827,278.985 341.5,288.5C 339.5,288.5 337.5,288.5 335.5,288.5C 335.5,279.833 335.5,271.167 335.5,262.5C 336.493,270.65 336.826,278.983 336.5,287.5C 337.833,287.5 339.167,287.5 340.5,287.5C 340.5,278.5 340.5,269.5 340.5,260.5 Z" data-index="33"></path></g>
<g><path style="opacity:1" fill="#f597cc" d="M 595.5,266.5 C 595.5,273.833 595.5,281.167 595.5,288.5C 593.585,288.784 591.919,288.451 590.5,287.5C 591.833,287.5 593.167,287.5 594.5,287.5C 594.175,280.313 594.509,273.313 595.5,266.5 Z" data-index="34"></path></g>
<g><path style="opacity:1" fill="#f69cd0" d="M 623.5,260.5 C 624.494,269.652 624.827,278.985 624.5,288.5C 622.585,288.784 620.919,288.451 619.5,287.5C 620.833,287.5 622.167,287.5 623.5,287.5C 623.5,278.5 623.5,269.5 623.5,260.5 Z" data-index="35"></path></g>
<g><path style="opacity:1" fill="#efa2d5" d="M 434.5,288.5 C 433.833,286.167 433.167,283.833 432.5,281.5C 432.783,280.711 433.283,280.044 434,279.5C 434.498,282.482 434.665,285.482 434.5,288.5 Z" data-index="36"></path></g>
<g><path style="opacity:1" fill="#f76aa9" d="M 171.5,278.5 C 173.937,280.433 176.271,282.6 178.5,285C 193.122,292.69 207.455,292.19 221.5,283.5C 222.492,283.328 223.158,283.662 223.5,284.5C 220.373,287.57 216.706,289.904 212.5,291.5C 208.616,300.717 202.283,307.717 193.5,312.5C 192.791,311.596 191.791,311.263 190.5,311.5C 196.353,308.16 201.52,303.827 206,298.5C 209.612,292.334 208.112,291.001 201.5,294.5C 193.197,305.98 182.197,310.314 168.5,307.5C 169.833,307.5 170.5,306.833 170.5,305.5C 182.076,306.872 191.409,303.039 198.5,294C 187.037,293.433 177.704,288.933 170.5,280.5C 171.338,280.158 171.672,279.492 171.5,278.5 Z" data-index="37"></path></g>
<g><path style="opacity:1" fill="#f44c93" d="M 230.5,298.5 C 232.781,298.077 234.448,298.744 235.5,300.5C 233.076,300.808 230.743,300.474 228.5,299.5C 228.957,298.702 229.624,298.369 230.5,298.5 Z" data-index="38"></path></g>
<g></g>
<g><path style="opacity:1" fill="#f65ea1" d="M 219.5,307.5 C 221.388,309.988 222.055,312.988 221.5,316.5C 220.5,316.5 219.5,316.5 218.5,316.5C 218.704,313.482 219.037,310.482 219.5,307.5 Z" data-index="40"></path></g>
<g><path style="opacity:1" fill="#f14d93" d="M 160.5,242.5 C 161.167,242.5 161.5,242.833 161.5,243.5C 144.552,252.395 137.385,266.395 140,285.5C 148.69,309.929 165.524,318.595 190.5,311.5C 191.791,311.263 192.791,311.596 193.5,312.5C 168.949,321.929 150.782,314.929 139,291.5C 132.566,269.046 139.733,252.713 160.5,242.5 Z" data-index="41"></path></g>
<g><path style="opacity:1" fill="#f85ea0" d="M 226.5,305.5 C 229.407,306.734 231.741,308.734 233.5,311.5C 232.998,312.521 232.332,312.688 231.5,312C 229.21,310.223 227.543,308.056 226.5,305.5 Z" data-index="42"></path></g>
</svg>